<mxfile host="65bd71144e">
    <diagram id="Ht1M8jgEwFfnCIfOTk4-" name="Page-1">
        <mxGraphModel dx="874" dy="572" grid="0" gridSize="10" guides="1" tooltips="1" connect="1" arrows="1" fold="1" page="1" pageScale="1" pageWidth="1169" pageHeight="827" background="#FFFFFF" math="0" shadow="0">
            <root>
                <mxCell id="0"/>
                <mxCell id="1" parent="0"/>
                <mxCell id="82" style="edgeStyle=none;html=1;entryX=0;entryY=0.5;entryDx=0;entryDy=0;strokeColor=#000000;" edge="1" parent="1" source="WdwUoGdTQqTl5T6Ace5M-7" target="45">
                    <mxGeometry relative="1" as="geometry"/>
                </mxCell>
                <mxCell id="WdwUoGdTQqTl5T6Ace5M-7" value="&amp;nbsp;client" style="sketch=0;outlineConnect=0;gradientColor=none;fontColor=#000000;strokeColor=none;fillColor=#879196;dashed=0;verticalLabelPosition=bottom;verticalAlign=top;align=center;html=1;fontSize=12;fontStyle=0;aspect=fixed;shape=mxgraph.aws4.illustration_devices;pointerEvents=1" parent="1" vertex="1">
                    <mxGeometry x="30" y="84.5" width="100" height="73" as="geometry"/>
                </mxCell>
                <mxCell id="47" value="" style="group" vertex="1" connectable="0" parent="1">
                    <mxGeometry x="212" y="73" width="228" height="96" as="geometry"/>
                </mxCell>
                <mxCell id="46" value="" style="whiteSpace=wrap;html=1;aspect=fixed;strokeColor=#25B8EB;fillColor=#25B8EB;" vertex="1" parent="47">
                    <mxGeometry width="38" height="38" as="geometry"/>
                </mxCell>
                <mxCell id="45" value="ru" style="rounded=0;whiteSpace=wrap;html=1;fillColor=none;strokeColor=#25b8eb;strokeWidth=3;" vertex="1" parent="47">
                    <mxGeometry width="228" height="96" as="geometry"/>
                </mxCell>
                <mxCell id="44" value="" style="sketch=0;aspect=fixed;html=1;points=[];align=center;image;fontSize=12;image=img/lib/mscae/Docker.svg;" vertex="1" parent="47">
                    <mxGeometry x="3.1500000000000057" y="6" width="31.71" height="26" as="geometry"/>
                </mxCell>
                <mxCell id="30" value="" style="shape=image;verticalLabelPosition=bottom;labelBackgroundColor=default;verticalAlign=top;aspect=fixed;imageAspect=0;image=https://encrypted-tbn0.gstatic.com/images?q=tbn:ANd9GcS8KI4rOeFdlKM9aBT_mi-9oWbLEDKr3xiI1Q&amp;s;fontColor=#000000;" vertex="1" parent="47">
                    <mxGeometry x="54.31" y="28" width="119.38" height="40" as="geometry"/>
                </mxCell>
                <mxCell id="83" value="&lt;font color=&quot;#000000&quot;&gt;ルーティング&lt;/font&gt;" style="text;strokeColor=none;align=center;fillColor=none;html=1;verticalAlign=middle;whiteSpace=wrap;rounded=0;strokeWidth=3;" vertex="1" parent="47">
                    <mxGeometry x="63" y="66" width="96" height="30" as="geometry"/>
                </mxCell>
                <mxCell id="48" value="" style="group" vertex="1" connectable="0" parent="1">
                    <mxGeometry x="526" y="73" width="228" height="98" as="geometry"/>
                </mxCell>
                <mxCell id="49" value="" style="whiteSpace=wrap;html=1;aspect=fixed;strokeColor=#25B8EB;fillColor=#25B8EB;" vertex="1" parent="48">
                    <mxGeometry width="38" height="38" as="geometry"/>
                </mxCell>
                <mxCell id="50" value="ru" style="rounded=0;whiteSpace=wrap;html=1;fillColor=none;strokeColor=#25b8eb;strokeWidth=3;" vertex="1" parent="48">
                    <mxGeometry width="228" height="96" as="geometry"/>
                </mxCell>
                <mxCell id="51" value="" style="sketch=0;aspect=fixed;html=1;points=[];align=center;image;fontSize=12;image=img/lib/mscae/Docker.svg;" vertex="1" parent="48">
                    <mxGeometry x="3.1500000000000057" y="6" width="31.71" height="26" as="geometry"/>
                </mxCell>
                <mxCell id="34" value="" style="shape=image;verticalLabelPosition=bottom;labelBackgroundColor=default;verticalAlign=top;aspect=fixed;imageAspect=0;image=data:image/png,iVBORw0KGgoAAAANSUhEUgAAAW8AAACJCAMAAADUiEkNAAAAaVBMVEX///8ArNcAp9UAqtYAptQ2t9zc8Pf1/P6m3O6Lzufp9/uv3+/M6/WAzeYArth7yuVeweFwxeO24/FUv+DL6/XC5/Pu+fys3u6m2Oyg2eyW1eq95fJnxePW7/cns9rg8/lFu94AoNJ/yuXvQhJRAAAMLUlEQVR4nN1d24KCug4dmiIqihfE2aIiZ///Rx5AZxTlstJLdPZ6moeRNiGkabKafn39BewXx3y5KYskaJAU5WZ5yCbvntZ/ENElXpWJVoqIAgpuqP4kUlqFq3guNpP9/LzLtjWO2Xm+j6QGlsP5kAZaPej5BaRUsdx5nsYlO6zSIqnGukNTUqSzePKf0Xq0PVUC9mv6rnJSwersaRbn6Sqs9Uz15/U8LtUTDGfZ39d5FKca0fWv7LqYupY6ymalAt545dfSg5hX84HFmjjKvklNM4canxzS6onoJCo7L+M/auXRoWAr+yY1Ld3IfJ4VkCdrq5xWFyeji2K/ZEva0vjBfgaHQsOG3R5dpwsHKhDEfGOh7AaqsBN5x1s3XjXua+H2gMq2LbXdiLwxdyrTyrQth1frv7J05g603YgcZGYTOATKxfAqd6sXP8gSF8JeJdYrgwlM+TFRD1Ty8W48Otl+yG2JQ+5HnZkGRV0gvfSiJWfYmgUEAxITy8TmqdPXXb/wT44N146lDWoT+8bHd7VyPI6vtv70ZYfFQDrKAhpdti6hs5WjNf6H+pTcvXGzBJ66N+4rVOpZc0Y4eTGuBnqGjK+9jU/F3rv6mNgXnoyrwbhLuXgdn+jD9j6TxKe4lcKnw+NnfoevNP5RJT/v4gZ6MCyc+lo6HvBBceHRv7iDX/TMn+vGJiCLrYC41ZrVO/5KYvwgSD6kDhHLiKv6cikbf4FRCxSKqrUPItZdQ3dnCz3GoU9Qa2HVdiGTUne1ee36oFdi6q7euH3RyRYLMXVXCj+9jr8UHL9S+LuLPnPX+cBhcV+CwoOougNK3qHkO6JEVNzgOUY5yqq7UrhJAcQdQknrrqDa28yzoO++Qfum3A1Bcq1qQMHj8JGf/O/wDPq3Ad7xLf01Vwb+mLiS/rpeZyCKifzXXNnXfXzxr+sK9a5tZmE0XVJKq4bybVQeUL8hsPE+i37oyK9MWejnaLnnMrFE+3En/mQrQcPVd3bZV7jsvpchX+e/EZlRJEqkKTwd4uNisTvG+clgAtVDoOJDFGqtrPC/1n6ab15Kr49PU42OG8X0Ciq+/pTvvKtvqsyfNixRtmKzVQipNn2ltosLtap4e6Z5kQp76uzbkCWwum4yc+ZrqrS6PnZ73izlahzw4Nz5vUK1bHPNm6IqB+LWRQkKXHvesklDT5hf1zCLf7JmPU6NFJsq7KxDt/YgPG+iihEiYFaMmkO9xBar7e2lh5zhSZdjRMTF+AQeMBqDc7/+jjmXrQdydhqkgLTaYM2gtutg83CAjfW1jr7tBjNGjWo0bVWYLZX0CxW0qkkrhrpVCa3n330qrHW9nraqh3OGumHm/o7xzLGQMDsej9sb4ha+W5j+08ahQZ7nh5bOLrg3gYy7wbFLidUylx5erImxeKgUpo7MYUqFdJoQj3UowTPGT8m+2mGHs66yPJ5zJ1aFIIIVrkTz4Pjiq0rO5veej6Hm9GvfcUh4sWSSa/H0MokmUWB5uQW/XP/oerPtZx9sUe9NBZfCAG9aS+aDbQBXLNWG++iZVjo4TYepNehXTwU/s7QD3yUJJq1Q8+aru3LN8ShvDDVvE3VXbxx7upIrO6DemzyxeEHzpsCM04plPQUdOBic+GLHoN5MGRIsz9DzSYyKcsE+OMKylnyU2OvWsekAUJ5Zrqy2BOU1PDo5BnCr1UVVQUeADEpd/zkuQ+doB1UY0dsbbwDLJJANtxIycN24q9gDMVi3orPOXfcL/G14MfmUzde1QERsRvBSwW2ve9hqqY9WSu0H+LrtQiMkAlLfnthO7fp/hMlbWsk7ACxTpe2o8TnS+yl3UDLrgmq5kxhbTEbSFpEp5pj3NthoPQIJCenf+vyje6i2O4Hsa9i8L2uLz1DCvKFFogqATukN61+cfrD5xWoAy1fM2mE0Zt5D3nth2HMHh0UseANiVSJnYKGlezA4ifwTmO2T04ADlzlcMoPcyRA/w54nMDq8/dYvG5+kzAYTSg3qgcxF5J9iCRfw+oEsmBL6hrQ16E7AdKcNlP05yQjQt0QJE+K3D23lBcw7cOFYATkl9N3LWXjEUHQC+X87OMlMA+NI6BvKDQ5FvwKMbSdHyIAdvYT/RnLPQ+7bf3DSIuSbAxhGQt9ILnYoVyRw3sZNFQ+IB9nLRDwdR5tCjIUn/cmLg4R5Q+TsEcyB+IT7XguEQNhu84JMIxig63nuSdNgMJeAAmBFcHNiWCDcJiFD5AzVWzjEcouWcMI0mwL65jVt24M0i5a1QMyPfgPz2mHqB9a5wRpAHMYMO8HDTm1aC2SgvUwYe8o/Aien9YC0Ba8LJEayeE6FQOtdb60BJDJYwkk4CGhnrKTSxlo/YoBw37IWaHfYNxH0FVvChb6RrDPPb0XzCpca9bnK8w8WFXY1siuO7YdC28s+fW9kDl8rYy3fAdmVg3HGgOm7m4qwFzrrrh3QupCFvbQfZhSYvrsXEomtfDO8fTyIZEFF+qBA+u7Z70jsdWo42O8gYvbvMhwC4WX0vHn4TIItHKRjEdNQEt02/4GU1pnIMWhuYAb7fBWyy5A5oIZtyDuPWrDOA1vBOiBEVkt7ygUCjLzXGRCK2bd1vQFLWki4b/AwUWdG9EJqnMvl5J3YJmShhd1BTRoAlI/t8W3R92wcqaWu+4eHgcWtMp1kwer6cKvuoec7CRqtuN/YyXwHFBcIWEbVeDFxw++1ilCwrkEuNrEIwBSfoXdzVW6z2GIu30xvfwLYhsOMf+3scIa5OsD2qGI3IEF8n8Dw7KNZe70umJ5mAd+4XDcOtF+riYU5jNDJLFk6B+kaTigAEGD6H38Bd5o/NDr9O0efruQuP4K35dxd3tRt9ccgYLugz7Y9HcQBzLekhGUEoLrxHSg7CF/Az3bCAACBtgdhdsPIQXUXcM2ZmEHhAW75KJOq+gHuZSmEFY7en6NiKAN/HZ5VQGfcdSfovb9YndHQS/WiEo16Ek5bTcY9oQtGHkHJXobJ4aRRgDTByWBh9ZbH0UJVs2K0j+2+k8YfWAdCgNuWGddLN0E97lAC8O7hLYskLZP4fgBvWzLWSjRn5LybFZDTWbP+zXLEHHe85sximZP7BHkCD7XKjfKA452udWhmDpGCfEDjWcltsyx/KSOX5UqqyLsi1uzEanT+k7RgXx+m6NS9jMzzhLunfcddGfysKZEulscHy9jv8pTbyP+3PxO/JlG919VzY/1FHvLP8ct7ky/DI5R1L1hKyrqTQhoG9X0Z3Af8slqMWPt17/D1LD5mt2sb2HcINA95z42jxkeEKTAvCz+kQA2LbvRwLYnRA/w1LRoG1uLHLR535yLHUrrmILvTuUPimFkb7a7SctyhR7zFeV8hxb38gWqniCSv3LzjjbcXC9+C+HKUl3k3ipM5iBA0++ClMVmvqC+dUQV6BD3jrdcwih1WaNCRyRa7ovoHWqoi3wOhK9AbUbuiMDn653UOb78nWsyF9ogqeo+vftuVl3e4Y4sMoi9jAXbFdoJPULfQZaP9eww5F/4R6pYJCvXAKTCBzmPXObzdd9/g/+r34fLQSULhZN4n3zkwMqk5xj7ktYDCBe8hGYffC5t1z/2kd6CFfWNQ8s5d5StQ4oiJqAhDKvWrcN5tZBJY+lI4JRCl2adLAdgF8gCZaFzAluXvCyN6T3lhBFsPN3RwLOvgYfwa4C2p8pg4z4ZTwCG34sRWzhSkTqAZAOb/gaLqNW+V2jsPU+h2CfinInf4TVPAT31yrnr2NAVZnNnMmT7ojUkI5m78ZvH4tCiwA0sTQseLqCo0PTrpZPyg8WYf7Up+MSltP2pShUUEdkkdOBVSa9GLoK1wTKxsTBWWmaGssLTxyrb/jrZrTANTiUkXDtaouLBw44qWf8OTPOJgZGOKTqYtJZ5w5NG5f1BfozWaHftMHEsm75R0eHC4lTufiGnkRDpZGl6++wm45AmqclI6zF2nPKPvUuOn+2plO/q43ofzLBmjodZsVTpN/bjM/TSlURpsQ5gt8z9s2Y+YbzdFrdIXqZtLBzWFq6lfSXd52RDNX7VOzctWSZkv/sDOhoH94ntZ0+vvHZi1Dor0lG8nIoJGk3iZFko3nO/r7ZLVFFQSpqvD8bMqNy4RzSeL3S7bLc7nt0Rc80UW57Plv6tlvt25m8L/Adeoyco+c2D7AAAAAElFTkSuQmCC;fontColor=#000000;" vertex="1" parent="48">
                    <mxGeometry x="60.430000000000064" y="28" width="107.15" height="40" as="geometry"/>
                </mxCell>
                <mxCell id="84" value="&lt;font color=&quot;#000000&quot;&gt;認証サーバー&lt;/font&gt;" style="text;strokeColor=none;align=center;fillColor=none;html=1;verticalAlign=middle;whiteSpace=wrap;rounded=0;strokeWidth=3;" vertex="1" parent="48">
                    <mxGeometry x="71.57999999999993" y="68" width="96" height="30" as="geometry"/>
                </mxCell>
                <mxCell id="53" value="" style="group" vertex="1" connectable="0" parent="1">
                    <mxGeometry x="212" y="229" width="228" height="96" as="geometry"/>
                </mxCell>
                <mxCell id="54" value="" style="whiteSpace=wrap;html=1;aspect=fixed;strokeColor=#25B8EB;fillColor=#25B8EB;" vertex="1" parent="53">
                    <mxGeometry width="38" height="38" as="geometry"/>
                </mxCell>
                <mxCell id="55" value="ru" style="rounded=0;whiteSpace=wrap;html=1;fillColor=none;strokeColor=#25b8eb;strokeWidth=3;" vertex="1" parent="53">
                    <mxGeometry width="228" height="96" as="geometry"/>
                </mxCell>
                <mxCell id="56" value="" style="sketch=0;aspect=fixed;html=1;points=[];align=center;image;fontSize=12;image=img/lib/mscae/Docker.svg;" vertex="1" parent="53">
                    <mxGeometry x="3.1500000000000057" y="6" width="31.71" height="26" as="geometry"/>
                </mxCell>
                <mxCell id="38" value="" style="shape=image;verticalLabelPosition=bottom;labelBackgroundColor=default;verticalAlign=top;aspect=fixed;imageAspect=0;image=data:image/png,iVBORw0KGgoAAAANSUhEUgAAAaYAAAB3CAMAAAB/uhQPAAAAt1BMVEX///9AQTeDzSkwMSTGxsSAzCB9yxU6OzB4yQB2d3F8yxE1Niul2m+74pZGRz2FziygoJ3S7LvG56koKRr29vYsLR9gYVrb29oyMydmZ2Dl9Nfh4eAqKxzo9dyUlZH2+/GBgXyU007X7sKL0Dvv+Oaz34nt7e2m2nKe12NNTkXA5J67vLnN6rOO0ULc8MrR0dCs3Hyrq6jy+euX1FaNjYm+vrxxcmy44ZGZmpZYWVEhIxCw3oMZGwBWfE7FAAAMTElEQVR4nO2daUPiOhiFKdjFVkWBKqKIbKJsAy7jqPP/f9dtuqRNmr1loNycL/cK2kn7NDlZ3ryp1Y5blw9P+y6CFlfvvvf90Nl3KbQ4OrUNw2ts910MLbYAJsPoGif7LogWSxEmw/C/bvZdFC26EkyG3T7VfYmDFcQEQOm+xKEqg0n3JQ5XCCbDaFzovsQhCsMU9CWudV/i8JTDBPoS+y6UFq48psCirvddKi1MJExG+27fxdJCRcTU0P2IA5PGVAlpTJWQxlQJaUyVkMZUCWlMlZDGVAlpTJWQxlQJaUyVkMZUCWlMlZDGVAlpTJWQxlQJaUyVkMZUCWlMlZDGVAlpTJWQxlQJaUyVkMZUCWlMlZDGVAlpTJWQxlQJ/X8w3VV5a3EVMI0+p/N+wWssuvftl1+lFAfVeuWsrnZw3Vrt10f6YpWI6enh9n0HO26WlmtZlnM2KHCNXy8NA2yw+112jZo8O2bddFa9kq9bq51c+I3v92TPenmY/rQ9224/lrwZvrdy66FM51P1Gk+/2/Fd2u0/ZRauNg0gRYWbFXmL8rq7vQfl9fx4z3pZmBa2Fz2I+zI3ww/O4ucAZJlqjctDO3OPnrcorXQty4KFM53z0q5b67zDIsd71svBdPPlwz/ulrcZ/jx5Wd3ovyqNy8LzsJt7KWcP+Hrs1rNSfYvy2jayRb6/DZzktgRMT6dt5CrhhYvryrTiF3U6ih+JdOMSmRKqUvLJBKZUx1WORZ1cNPDyvj94ubuQxnTZxlEHFy5sUb2hE5N5ngQ/ttyE2Vz8Gvj7A8t3f1mwdNNMY5yqBIuKTQkrL5GSFKYPu0u4gtctZlGDWfwc3PE6/ugn/sSqizYuf8iQgLr2R4HSZU0JB1XIojKmJCBxTDfXPu0aRUYpc2hKrfTDyVvczjhDkVHUgvIOxlJPeYabEqoiFoWaUmmYOo8M+OqjlKt60sD9oF+MmolFbXiNS7ZTQyuf0uDhlWBKmEUN1SyK5KNlYNr67BqqNkrpD5NK8zbJfQmrGduiaKaElU/BosimhLd8ChYVDO7kIAliOjFIpoTKk7aAwSYxpeaI/X2d+H2ofKeGItmsnEuqKeGgJDo6oR5kTEkc0x3VlFBJWoBAbcnUNrJFkTs1tPJdiw8e2KaESs6itl0pUxLF1Hn/FoUvYwGC3jOC3kX4Nb4pYeX7Fiwf35RQiXV0gKRNKRYP09aXgS86f9QX78mlla6FfsHs1BQqn4gpoRK0qHTGUVZsTLlhMldCFrCB4yK66UCl46rmOvOxsCnJlk/UlHBQfIt6EG6XcmJhIg6TueLOH7XEunCp+nCWAnYIpUwJFduiZEwJFc+iFkqmFIuBSdyUUNnf76xn3lSYs0vn/MIljo5gp0a6fANJU0LlDF+pd6BqSrGomCSHyYjg2klek7gqibtupGQG3dkEP3wVeC+BqIOopqwpoTJd2pun4KOIaJhOi7yvQctCy066Ch+EwjRLsh7l9Gp30qNDXBfkf+NKtcFLZFGa8a2Ke2RFwXRS9Em0ydN8fdCoKE5aRqu75qZ2U+wVAqUj/wvnKp0HpDrNyBf+KlaXqJguCzYrhkdu9pbBgzDfVJcAwF/Xx4eM6Yx84YuiBd4ZJnLz3woehLVUQRQKPMamxgS1U0wt4ldQg9F8Ojs720znI7znpDHtD9N8vFqNYb+vNXZcywSyLNcZz5EGUgxT1+dNnRwaJpvnXYqYPM7Chgym56AH58Q9vysL7WyZFjIGFsHUvVg83V2yy3d/WJj8W95SrhImr7G94YwEJDCdBZjcCNOUMLp032Qw2fGQjT3jd1CYwvkrzoyPAqY4SoW9vqGEqRVPCrkOUND2hT9a6b3zMGXn6Fnz5weEyfbjJ3VywZj/kseUztmxVgtVMA2cCNLmqtefTCa95SwK2nPglCsHE7biRQ+ROBhMyNoPYzVCFhMaQXl5T2tZVDDNrdydzsIR7Sr5kYnJzq8f/6GM0g8FE/Ze0VtqOUy5yTrqhSlRYUxMb6DujPNf1p2kY87CZH8R/r07cn0/DEyEuASak0hh8mHo5OQnWVK4IU+E/CWvFjAxgYdkYVH+r6AhdJMZQBYmnxjctCBy8omF+8eYvAfSr34QCyyDKZ0AmjqWM01+uM5zsr8pUfZMTC4BU1jF4IcsTKTKVKs9ETtQB4GJMniTiSEnYvLjGhKtb1rJpE8+6pketsfENK6HFFCN6uNxPZleYmCyySdRdYjudNyYQr/rJ9uQ6u4qnDvAMbGCYJmYZsCHTOucHqKoMaFiYMosnZmh36OY2EeAMjGNomETmCOazUc9wlKoxoSKgWmcWeEMe8pZTPY3e4MGe3g7TC5tmpYbjHFXsxZaszQmVIqYuBGLnMkiPF7EtBx3kyGlMaFSwiQQ/MXBVPt0LDwcwXSe4Sy5xoRKAZPdFoim52GqDVpvTrSSkbl5M+FUFqYGuXTHj8lun4oE/nIxAfWv5j/Pw8CbkpplDuNvNCZUsj090c3IQphiDXrLTTPq/DmxP2lMqBiYRmZyM5YZxhYv/jaEt/bLYAq1DiuvFYciaUyoGJiS6Ps0tvhEfPMtC9Oba1lObjvaIJw2jwOrIkx3GlMsIqZGMrsAou/VdnKzMDWD+3TzUUdgUs98jv7/qDA1iJM1HdKvys2QX8BRUW+mtumUWZtM4n2ujrU2GfeE7VbbEhYyjMJ5iliYPsFDcvDQ8nBJF/WmY8GUX76jLrRLrt4WzYbBwtSLenWYO4UTSGhPrzimLrl0/36RHVkMZ4StSMdCyG41RsXs6Q2jnsksjaLsz8NhLlxlPzpMmdASZj4Phcgi/1o9YRMT0wQGFlnj1XA4bAYD3PAT2P87QkxJoBZ7o5JKnF6BVHrscdM6s+k1nS4yHbj18xgxhWs/vF1qalGvyhbFGd5OVrndyaabBi4fKaagPLythKox5IoWxZ2FWD+HE6/xXQft3yo7kjpWTFyph/rLZMOAEpgsGozOz8aW67rW+PlniS7hloXJI5fuGDGJZ8PIKMSE7RVkzumhchmYbol/oTEFdyud7XUEHrSLzjMJY1qD0CPzjYypS8lt9ULq5VIwLQvvvaXkEt4Vpq3g9nhpi4rCxJHdMIKYJm9h98JtETF5lF3PtRtS2gQKppqJd2AkK5NDCLMBei+6XeybHFHXaYhu6pW0qHkcPZTJrwKWKlxuupU4Y6Vp1QiYWO0vKd6Xhul1WCQvhDvOp5uL1GHnZeTJ/qa1WnfCaXAkR1EbPIXeGnzgcGZyYf5Xd0LAdM9+VfI7R2iYQPSmcpYV5p5i1VwoQMzsn+L5O+RGUSOYMSWMQx+FPznMP1mj2ZQxTAJptvGdI3RMaS4rOZlpsDZZapmFQFm77DVXiRRtchYFc4475tAMASTrSUSFpx6ELOPMLAgmRkaX7L2gO0dYmNJcVhKKcj6zJZ+nywBtFXFDAKKnW+EsHlIWlWbwj//DavOmuTTKGUzigwLEomz27/YlLSrN+cyWXNY7oPatUBJd8YxIchbVW2UfBKPBSNKmZTuHKSaOKaHKWBQHU5rLSkSW2+JdLpFcVmuZlNTiSS+7v0WvGT6IJqxReNbkVGtiiv8Ek/TZD9CiuJjSlpknRulJEs3IavCi8XMSTSFLma6hanQWboV2z2gtHszliaULizCJmRKqxKIEMKFnq9AhEXI+syWS39hQOS5BLPdl40V+jm/S79PvEpoSni4MYFJdTImS3jO7EFBoy0wSmjBTVJykFaGUDh/hW1TXLngKDx4DkZpSLl1Y568tZUqoPoxul7yzMK8l06JMcVNCxU1Tq3yUT+7QHUSeX/DAkKs6egZaD5oS6Wi0X4+FDiTaSjQnn9SWLzAl9cNMmEmfVZpzKPppIUVPnel/gtFTpi/3CkdKOzgiTlKwLJhoqdFFRc1WW/SYOcoxB3b7d8EznOZYauRPmintR/AwPcSUBHI+c0TO/ay0jIeKVFX9Eg7FTN5Y03l+ZZnSvoTnvJY/cIEowntfLG4LaoFV1cI9h1jrJJ+y22SZ0t6UzSAvcAiOqLD3vviZYFDZquqVd1lsxtPdvymhghOLJftlpmtW7tmnsKrytkNLKjPjyV4T2JOiGZHy/TLpmqkfBkZRUFXtgH05pz9mFHh1FPeqfOztbtUyHXcHfglmD+yuV+RoPYo+vvzbXRynvRw6jrOh58bft3Zklzfvj2UeIfwvxH8S/wE5yS8cDo3M7gAAAABJRU5ErkJggg==;fontColor=#000000;" vertex="1" parent="53">
                    <mxGeometry x="48.39999999999999" y="29.5" width="131.21" height="37" as="geometry"/>
                </mxCell>
                <mxCell id="85" value="&lt;font color=&quot;#000000&quot;&gt;データ取得サーバー&lt;/font&gt;" style="text;strokeColor=none;align=center;fillColor=none;html=1;verticalAlign=middle;whiteSpace=wrap;rounded=0;strokeWidth=3;" vertex="1" parent="53">
                    <mxGeometry x="57.010000000000005" y="66" width="113.99" height="30" as="geometry"/>
                </mxCell>
                <mxCell id="60" style="edgeStyle=none;html=1;entryX=0;entryY=0.5;entryDx=0;entryDy=0;strokeColor=#000000;" edge="1" parent="1" source="45" target="50">
                    <mxGeometry relative="1" as="geometry"/>
                </mxCell>
                <mxCell id="61" style="edgeStyle=none;html=1;entryX=1;entryY=0.5;entryDx=0;entryDy=0;strokeColor=#000000;" edge="1" parent="1" source="50" target="45">
                    <mxGeometry relative="1" as="geometry"/>
                </mxCell>
                <mxCell id="62" style="edgeStyle=none;html=1;strokeColor=#000000;" edge="1" parent="1" source="45" target="55">
                    <mxGeometry relative="1" as="geometry"/>
                </mxCell>
                <mxCell id="63" style="edgeStyle=none;html=1;strokeColor=#000000;" edge="1" parent="1" source="55" target="45">
                    <mxGeometry relative="1" as="geometry"/>
                </mxCell>
                <mxCell id="64" value="" style="group" vertex="1" connectable="0" parent="1">
                    <mxGeometry x="840" y="72" width="228.00000000000003" height="96" as="geometry"/>
                </mxCell>
                <mxCell id="65" value="" style="whiteSpace=wrap;html=1;aspect=fixed;strokeColor=#25B8EB;fillColor=#25B8EB;" vertex="1" parent="64">
                    <mxGeometry width="38" height="38" as="geometry"/>
                </mxCell>
                <mxCell id="66" value="ru" style="rounded=0;whiteSpace=wrap;html=1;fillColor=none;strokeColor=#25b8eb;strokeWidth=3;" vertex="1" parent="64">
                    <mxGeometry width="228" height="96" as="geometry"/>
                </mxCell>
                <mxCell id="67" value="" style="sketch=0;aspect=fixed;html=1;points=[];align=center;image;fontSize=12;image=img/lib/mscae/Docker.svg;" vertex="1" parent="64">
                    <mxGeometry x="3.1500000000000057" y="6" width="31.71" height="26" as="geometry"/>
                </mxCell>
                <mxCell id="59" value="" style="shape=image;verticalLabelPosition=bottom;labelBackgroundColor=default;verticalAlign=top;aspect=fixed;imageAspect=0;image=data:image/png,iVBORw0KGgoAAAANSUhEUgAAAYEAAACDCAMAAABcOFepAAAA/1BMVEX///+jJCLcOCxJTE2sJyR0EROgIyFGSUo/QkNXWltMT1CmqKiiIR90dnc7P0D4+PjTpaWfEAy1trbbMiXaNyzFxsY3OzzbKhrbLiDTNSqvKCSdAADLMim6LCbALifaJhWqLy3zwr/r6+vjaGDU1dWSHBrGx8eAgoL16enX2NiIioqhGxj20M7aHwj54N75392cnZ5iZGXl5ubohoDgVk3qko3fTELuqaWVl5dvcXLeubmgFBHkbGTws6/toZ3aGwDdQjfld3CDFxbPmJi1V1bGgoGvSEfLj47rlpHzxsPgUUjoiILhXVS4NC+uGBH31NK7ZWTOTEWqOTfhv7+9b26/u7HhAAAT0UlEQVR4nO1dC1fayhbm4THhlUiABERMRQ4vRR6+oAriqfbU1nvtbfv/f8udPEhmktkzE0SthW+dddZqzExgf7OfsyfEYivD8fT0cZ4oXlxfHq9u0g0E0Z4e3phGoZBAKBhm73DafuuPtE5A4u8ZtvA9FIyb64O3/lxrAvX41DBJ8bskmIlv/bf+dH8+TmYXvTJF/A7KG2v0skDWxzRoyx9XhOLpxi+/DJD1mVOtT0gRzLPZyVt/2j8P/fOvpm99CmxNKBjl6wP1rT/ynwT14LCMy7xwOz0LeIOCYQSs0cWXjVteEfpfLkLWpx1DEZFHSsHonc2OA/cgRTjcxKfPhzo9K5dDJqd8i/7UvvxqKYItfmT3L43gXehPFxuP8Dw8nSboFt94cv/eu3m8dIQ8p+YIhnE2fctv8K6hTi9MKPQvXC9uWoT/DyZ0q1H+slGEJXB8e8MKeHoPgfsPGTeXbx43HiEa2rNEjxVvlo35JTmiH/YChCKY5unT23yXdwj14LrHkmfBmIfT3oOiARcrHNZ6Z9N3niPUS1qDuDDStM7Kn9L/UmRlvgUzASRbx7cJTspcMAvvuWJR7+qKoqeb/oWWdWHYYIyJDKvszFzKxWtG5a09fSxzykbl3uN7Ld3VU3ISQdJL7oWRe0FuMsdFQf8bc/kjXMz67XabYUtOZo/MCezQ6PT4PVqjnC1vBKXuXJi4F6RkfSUPaM8ewdgTW8OmWZh/Pbw9PZ9Nj0/I1ay22ydPD18uBCb5+v4StY7uEpCUB84F2buQWcH8YOpFXcaFQrlsmGbPcCk4OZid314/XiTMngCLCbuyd/vwvhRBUxYCl4bOBY8BKffcyfuzM14gAyzmW2eCrz2jXChQGSzu7e7Rx5oX5++pdIcJPGVfyKyKAfWA7j4LZQMtcwTDCNeFFrixY/xjKB1OVPZ3t/75659akU5C+R0lai/FQP98HhZ/wej1Lq7PL6cHFqaX59fzXnBn3r3zwprklq5AaPlvIfz9F8I2XRFQavHtnSRqL8PAwWPY+qDs9XYa9pP96a1JCZRMlBq3qelbZX/Lgc3AX7AiGF8v34NHCDFQ8h1Da7kpj28NyvLvwYZBnT6GSxXlduwLhQFn+eMMsBShfPr7e4QQAyNpcUFZKhaazmmpl3nIFsXTWVDa5dPYPLT8a1sYfAYYinBz+LvnaSEGYgNXCaR09HygPaMXEIxL7tBZ0OsWTkkmi9jyDzEAK0LZ/M0zhDADsZYuWSmxFL0sMTXphTcBAhAFwbEEleTypzGAFGGXpgiFx8jf41VBYSCmpVBCnIuuAbc9qvwThTOh4RdgbBpa/nQGELIUDozIX+RVQWMgFquPlogipgABifK50PhTKHnb24pTCKAw8Pc+TQn+E/2rvCboDCwFyo66qwOHQuPPnqcD/+xWqINrH575vV4YK2RgB9x9MUSK9+B+sA0rCWYx8Pc+MG4r++GZ3+uFsUoG/kuPCJESzPn56RNL/haKezWIAWj5I/8dj68TA/ktekBoFT1nbMeizuAaESZQQhEWDABhKOKsFt9eMwbi29BiTBgXl4w9sMsL9n68L1RMEWwG/q5BT6zY8l83BtB3hiRSMBKHl09hTVCPLw85/boByWJ1oSwk/kRl15H/8xlQAe0dNbTBeDAeD7TGSHgye1B3nNGa3hg6Ax1w0lFTy6Cnlig7+RYDiINtoG7vNOGefZsePBz3T9on/eOHg8vTswSliBQaFYCjCNkaOGZva9uVfwQG1MEwnczhe7N1rTtJJZPpcUgazW5aUmQHiiylcyJbuo1xWnYHKYqU6jpjaAxk0uieCYWDRgs9V3Gems6VAn91GLBI2AICk4S9O2AaCGXrfyZjh8C5tXczv54dhApESBGoob8n/7gPUQaasiwh6GP332pmKFuXrPqAPiBuzSSR1JMYJElJcqpo6iBNDpJkJa3RGcgpkn1DcJlraUWS8IfKXeIWjwHLGDEExEehbJpm+ez08sGu6UwFnYSNYi2Oy1+YgZHufjfdFqXa1XF56Zh8MwHxewINLkkcY50yCC3nEoWB7qIylyIMYDOthKaQ9SHGAcaAZYxAF8kUvbVxNr/+cvDk++02lGtTUNndJuUvzEDX3x+vWzV6mfimfttCfagExeDRNIEqOY2kDI1pDULVae+CovlT1Cc6hXeryaXrPZVggOkQKKJHy95IzB/Rsu8HPd+jqJsu7m8FxS/OQNqvypdiXT34RRW3TtmgrX+PuyS90W1AF54jQZ8blwGNtkPTkCAOk7K3jRBgwDFGfEUoGGZhfnZLLHscobI1gErQ/ERiQPUZkDOt8DJ3TYzGkGUSarLKgVoTGA3vUjbCBgj/cMM6wIBtjPY4HuFw+tRn7KL0xZotKrWQ+YnIAC4Kype0daDEkyWNghy4eoUZGLE0D0EeqhADFgdbbEWYs09rC9mgvbD59xn4EZkBmnSsVdbky1IKbasIE8BgYMgmAC2QAcxAnJWm2SibjJZP2l5xAHTz76H6aQUMyN2YZYsDgpAkJ1wlr5G+oCtMAMyAFnJLoaFplcWA45UZxqhgzoEmqyeuDarUsiz5x6v3IgRwGJAn6AuO0mQOoCRzrXE3N5RJGy2l8IgoI+gDmAwEHizZWSA5Vrce+rHKksR2lmmMyuVDSu+6Cu8ZOMCTXxqOxDSAwQCK83W5iz6aOsG/tKx0m46k1XqpK+MLXcZ6TDoyZbakris0zYAY6BAqoKS7GU3LdCWCeJuB2HcmBcgYMcPTgnkxCxojtg3imB9L/nei3Sp0BlDW2dIazobhAF/NSosoGYy6RPrmpWZqwIArqXGjrqr1TqmbDEc3EAMaRpckae5CrWtDbArJufqpesTmAHllljEyCrfEXs4xiwAo+sQIuPspKH86A5I+1Dy97JBiCI4fDbG4Pr0YRdogSfani6laKEuDGGj5gpaJpK+UXtzq6V3/jsMB1ysbX/0TSSq8d4+iH578t3f/F6F5lMKAnMTLDJgYpDStbollcYsUqU7EtfKQTJnVbsBHQAz4ihRqYxzo9s0y5nv63494kmHnygWjvAhPv4EqwDM/1kMqlk59E+3XCjOgt3C/hNliSaIXH7CIRXGGDgj3MAz5uTEZ40AMpPx0PZRtOAeeiI/69AjmRsKK0DuzVu8DUA+Cky9f/ov5y71vSzKgk4YGUwEFOmNX8gTqFHRUPIZxDweQyBAU8BmgHelQGyV8RRyc9Qrh8mR0RTDLsxO6x2AlXx6/2FBjLqQGQQYCYlZ9g8E42OI5a0fceAYNdCC2cC2BGMCCMCXkgEg8eMfFuGbCDk9Z9QqDqgF7fPMTdPZloV6ZAAN6ILP1q2VJiTGLt1p1yyxgepOUgQ5EPFiCGBhjNCkp1l7Q+Q2xVgUUIVoFu7jPTr6AgNeMzkBoqXWZhsBDc2FVrEKeignOzqlpwGN9iAGiGiXpqUED2Dg9uCG/OT9cjFTB5k8HuJdaZAbCJyd8i64zuzkXS1oex2INXLjgVjIeYwEMqGTMJMl6ctjKUGgI98xZKROXBGaK4EHA/AMT1eKRGZCDUlaxSEhjIefK03IEGSxDgI9ijLCpoarEOJRBS4gGKZfpkCxQe+ZEjBE7MnLlz5kDKjxVtrKRGZDHwb82sFUos+DHjYTcWBuYfqQDMlCnV/cQC8MMvlh2/kuVXoXvldmFO27xAeawaPXMRWZAD5kMLUJ9zZW5Gsth9oVhunyi4Op0CSqOSkqy63/anTzUr8WrnzEVYZ9v/qGanz00MgPSJPRXjb4IWQyM8FSW1YqFHRuD98gyYH1akqXBwhbt5MlInFAEAa9M44C7/mH1WQyNzIA8CP01E5kB5LAx8xLm1EdDhAFEAbxJIw9HCwZYS5lvS8KREZc3+HH+0MgMULKeyAxYwvTjJ+aZSN8VM0+zNuGteq9Q5fbMwX6VH89Yo/fc4Xv7W1z5Q2FUBfP/0RkIu83IVsiK/zEJrYAB6x04oBq4FCz2yBhBfpFr1NHo7Xh2C0UwHLZQ8gs9hWQ6OgPhrDOqJ5asnBjTAVpNaAExK2Shk9OhlSBPcAYs8YDSEfHKAmCk08HCxSp0gNsjQcpfsbfrMQbSjCdrwgzYO0HUhj23kEj2zMF9iwJemSf/ONSYSikKroKBER6KSDxMnMLFcHXRKAar/RdPPBa3JoMMsKs+ArkyLH5Ywah161UwgOXEFBsFAC9oPy8jC6De0LpDKUCCtSsU6pVgbUouqwjbcfCQCODoV8EAtp7DCTOE8cqqEjTUtSHZip0CeubgyEggPKVMByVf8GwrYQAzFSybTgB3HvJzKnMQGhN8tx9lIGDPHOyV+eEpMRWoUnsMjYrctUhjoKkz/0xFHXMeMqQEItVpGE3M1yDzCPfMrcIYMWJcNpFiLVscBtQkZq1FT7vjuy/QexMnAjs09geAPrZvHjVmzxxKtCAOhIwRI/nljK/eCQmMwwBu1MHdliDwTFpKUu3QmNh8AWujg0kqp1G/B7F1xOyZY3jlItcYwc2/LPNjIVu9F1uxPAZGuFEXdMYjPH+SUhQKNKGd+lLSOl+lDGkcDonNO27PHNi3yDRGyJFA5p9DXbb6Q7Rni8cAXmuGtGCU6XY1PPLvcigIpNoAAx3X30oSpVyCdRBYORm3Zw7uWyxCe/DbcWAIP5bK/vgoKH8BBjq4tOQWRbMGKE+SFbzNq0O2zKUDEwe7egEGPO4luRsgEafQOeHQ/1zNsqXC8Mq0FQ2m1iK7xvvF6+Cr9JdngFzQclCaXtuipGBdEeT2oqTksL91hsEiD50BLAhIyvIY66JpEDPo7qL4+ZlDAStFCOS022D1QWTX2FKdglEU/KEOPgNE/xWS5hB3jZ2Wlx7hmwHkGGsVpwfNTr3eaWSG4foOnYE6cY8sJ7taqdFplMYpMiNzvXb/VEQ68IFje2/fRRbaeuQ2rcSxyNV8XEksFCM3i20O5GE3ozUtYRDnTPF9/kawpIfslA3qgVi6FUoFWHSnCMzgNGyfPN5YJy4oR0rDJMBFo739/VptH/K+Ij2LROHCOF0RA2T/OiwMZcUnOAYimxNOAXx6s+h1FupbhHNlGEI9iwFuhd5yJsKA2ImkQMY2FqcAYCBoyqiwm/yOiY6t5/cthgDGS9iUlMh1f2UMCJ3KC7T8kq2hyzAQGzE2KBef2d7bDnZsraZVyJe/QNMELdjdW0VlboEJXxahdC14TCAyA7H6hDOF4iQo4dc/VGrPbBXCp1quZ7FYW0lt1LuNctibEKJMaW4eM49j4ydDAAbQteCRTWKGBeu0jq2iiCJwDhwnntGziOyWGAP4Ww2YL1rNsMQp0zubNYYZkbFQxzkMRv39gVEOfK7snanayVO7hXjHTePMwp0rRs54oG5qNzsKMuAXWBT2m1YbKUgWkjwGho5yQJ+DLA/8M5quwP0Ilqh+lOjPlbBDhTt5ILwR8aCM4s+yPYtus6kgA16CL/OK8mqG8poZq4kzx/gBq9Iw3OeAYllLel5Lou6OXyyGwAuG1NIk+Ioc66GY1tkdW0CIKdIqRD1wzO8ZBWyYN1CQgYWTDZ6Jp3KgWbLA37UkK5QXcZFodFEO5w2ymp8XQ5zXhUheEDVy7pLCrWOjQUpX7BdR2ee69TTtDU9QJacikMkGF3OFF/5A5gdPm0UZiLUsqSppsddtj7RcWrcO0aH/9PRkUBLIvNXmIJfSbShp/ABAJyfruAZ1UrolXppPUevaoDVMpdPp3DjYvO53bEEhpkg65a9ogZ45ILEm4yZhBmLN7qRF3wcBJNppNDvNRlAOnEH10ageenugSr5mWi1lMiKcBuDvkW1Db73klxSsctzW7u5WnNczBytbIPoSZ+DdA9+lhGsOS3RIUHkCdhrCLXlrygBjjUbtkKDJH7Bz1LR5fRlgGSN+Ay9L/kA5CTBx68wAK8wXyJXp4o8c7643A3FGZLRM3yLUs8jaM157BhheU+SwKyl/kegziKtfby2YVwOrYwsqvvH6fcg5aAaNV/u7+vG7/xzW6rDD7NiCim+CPXOAHvFGZ6t360NATP3A7BYCvTK/cLec+UHyvzoSfM3cH4L2HadbaLl6BZRYcMOpq/z9GimAg0/5PI8DwCuDKcL2NnXXgdsxl81X10/+CO1PVxwO4K45mjECim/cSDZbPfq0jvK3oO5kuZ2LkCIEjRGw/rlljWw1vvPWcnhT7HzgvXER3MmxtjStE8XWsWIg/OHuMxxVI3Ts/qn4eVflGiOwJ3evVtvdre3Tt1545e3sVfX7O/lx7hdG+1Oc++rRKD8R4WoIT/75+L/rav4p+Pg5f7R8L3sYXPOPzM/Oe/hd9FfEz+9HfGMk1jXHjz6v8hFecrw+aP/7Q8QY8RRBIPqM//r9f5L+baB+vKtePc8Ycc3/UfXzzsb8M9D/leUaI+i4hkjxp3r3cWP+OWjvfF7SGHHlnz+635gfEag/vy9hjHjyP6p+WNviwxI4ub/i1yv8H88qVngtW8j8b8xPNKgixii+Vavt79d24zzzU/21SX6XQP8X1xjZNSFu7Wd9a5/PRvvfKrdwxwEyP5vk61n4+JmvCCCs2tsm+nk2Tu65KQIg//zRpva2GqAUgVu4C2FTe1stnn7FeeEpsfyvrr5vzP+K0f7ELdz55ie+SX5fAurH73kBr5ytftiY/xfDyX2c45U3tc+XBtsYHW1qn68Au3AHyX9TfHgdtO8p/RVHm86H10T7X5KDbH6T/b421J0f1fzVUTabPTrKo/Dn5K0/0Dqi/fH+7vPnu+/3OxvxR8T/AdAlRCnND6X5AAAAAElFTkSuQmCC;" vertex="1" parent="64">
                    <mxGeometry x="45" y="27" width="155.77" height="53" as="geometry"/>
                </mxCell>
                <mxCell id="69" style="edgeStyle=none;html=1;entryX=0;entryY=0.5;entryDx=0;entryDy=0;strokeColor=#000000;" edge="1" parent="1" source="50" target="66">
                    <mxGeometry relative="1" as="geometry"/>
                </mxCell>
                <mxCell id="70" style="edgeStyle=none;html=1;entryX=1;entryY=0.5;entryDx=0;entryDy=0;strokeColor=#000000;" edge="1" parent="1" source="66" target="50">
                    <mxGeometry relative="1" as="geometry"/>
                </mxCell>
                <mxCell id="71" value="" style="group" vertex="1" connectable="0" parent="1">
                    <mxGeometry x="527" y="228" width="228" height="96" as="geometry"/>
                </mxCell>
                <mxCell id="72" value="" style="whiteSpace=wrap;html=1;aspect=fixed;strokeColor=#25B8EB;fillColor=#25B8EB;" vertex="1" parent="71">
                    <mxGeometry width="38" height="38" as="geometry"/>
                </mxCell>
                <mxCell id="73" value="ru" style="rounded=0;whiteSpace=wrap;html=1;fillColor=none;strokeColor=#25b8eb;strokeWidth=3;" vertex="1" parent="71">
                    <mxGeometry width="228" height="96" as="geometry"/>
                </mxCell>
                <mxCell id="74" value="" style="sketch=0;aspect=fixed;html=1;points=[];align=center;image;fontSize=12;image=img/lib/mscae/Docker.svg;" vertex="1" parent="71">
                    <mxGeometry x="3.1500000000000057" y="6" width="31.71" height="26" as="geometry"/>
                </mxCell>
                <mxCell id="58" value="" style="shape=image;verticalLabelPosition=bottom;labelBackgroundColor=default;verticalAlign=top;aspect=fixed;imageAspect=0;image=data:image/png,iVBORw0KGgoAAAANSUhEUgAAAUwAAACYCAMAAAC4aCDgAAAAw1BMVEX///8xYZIAAAAuX5EkWo4fWI0pXI8SEhL7+/vJ09/Pz8/JyclOTk7h4eHo6OgeV4y/v7+nus7U1NT09PSEhITa2trm5ubu7u4nJydeXl5HR0dVVVXGxsajo6M6OjoZGRmTk5Nzc3Nra2t+fn7u8vYzMzOwsLAXFxeMjIyTqcI+Pj62trafn5/i6O8pKSlyj7APT4fBzds+aZd+mLZafqWLo75WeqLW3+igs8m0w9XH0+A7apl1kbFIcp2Gn7tafaQAQ4FOdPWEAAAVGklEQVR4nO1dZ1vyTBMllVADBKRLR1roEhDR9///qndmNoGUDepz2y7J+aKyKeRk+s6usViECBEiRIgQIUKECBEiRIgQIUKECBEiRIgQIUKECDxomWSu2avWa5N0vdsepkraT3+jXwMjmykBMndlHiflUnI6bM6G01TpDseN0qx63xI9iN9XmxGhsWyuWJ1U4kRJa1Cr9pqprHEeNQrt+uDCWaXWbfbuxRCkZ9kffJAfh9Gs8lip9ZpMBme1MOLEeOU+Xe0CqrXBRUx7mZ9+pJ+CMQqlShQHxVTTTd3ARdmgN01mL0qtlUvTnkN7r/yDT/RzGDq6251Nk5myYZTBqwxHVZ85rM8aDnFaNjUc9aZ8usrDOjuh+Y3P8EtgMAVPN4OKaeTadUcGpwbnXELftKxEImFZ/bOMZnqM/lsTziy5kW7Spaya2xuXcz1wPG2bSq1vAi6sxczFaS3IsqIrsiqst48rk32e6eBl54VveILfA6OCYpej37X+ar9ZbF93r4vnx/2T2bePKedKNGztF7u1AFjvFi8HNqyZL6osECRBUhVd2B7YeQ18S/HcDzzTT0FLozZSINPPb1Vdl2VVklRV1uHX9WL/5BAa6+93ug5jRJuER54eLZJQc6sLLqj6ekxnlUk4b4jNIjxuFSnR9sJSFTxAypbSIk+M5QVdEnzj+vJ0YIOy6h1Q9nR1ChIaP/d034skPOwE+TDXusCFtERe+rtlyOjxgNcxT7rv85OFn7eRzbuffMLvg4YxIer409Ivdg6WYxi2dDVk2KFNW/jYVvU83mGGdjM0DvhTmNrBYCJELAVBXsCwJYdRTbQxnR77ZVd/xI9R00c/+YzfBhDMFii5KYSSJffRBITKJcPyGWXPz6ZEbGpdYPMWws0CPOcMfi6UMJpQV7WtfJ1LOGyH7vvFL99kbvEm0x9+0O8AqGAcLOZTqJKrJzhqHzp8gXxCNhd+1pcreBcQbvZ++km/AZDZVOFHuOTpQIb5ho7btK+BTW0XOBb0v8Pu8sdxBwo4RPcSyhAKZkDcwtjkGV8UzaEo3v99f54DMiFPHF+1mGboqA/yFi658jkhfUxGs/X3PdCMicwpTI8lVN2X9wmmYLsbnxNSIbIyRPHh7xfemTHrh9pEeQNm8L2CiWwm4Grej9StFtPsxOBvo0ZuNjxgR/fj19trUE8g5wfPCdIrWNKbkMw5pT+H8MgHtPz5Xb7cYR9Tz6PbB0k7InP+921mi+pjj2FGEe2ddjWRDECxfFErqnnsJrx5XBQLIHthZOrgUBIf0HLBzuTdDs12QPW/P5Eep8hoEabIy6f3ZT8uSKrltRvow8qi2P3pR/16AJmZWCyYtdjQ+1eYDoH8DA59fTENdpx5A2Wj62RKR4hqTjYvkvSm7ZRkRdf1pQmx5iWcWuapzncDc76MzG0ImWju+uh/VF2XjkdBCS8Qo0jqp01+tVrlLU+whaEn5AbJn37Ur0frKpnyC1XYl9JmZdLExmobWo6Xlo/m5brmZUABU9ETxb/vzLFoVAovZKAzP/xv++Q64RCYU7OFeG26r3shUzppODUy+PvOPJammcPHkIRRP4DCJtiRWp+1HTxxpVhSsZipWYf9eJxfuclUnyky6vzgQ34XiuQZ8iHRD1bPCOZhs1sLp2ecNxvzDkbaY4e1vl4vdf3kLsRh2alwE/4HC43F8Dr7kin400LSZX232BK77rDnLJhrOGy/HJv9/krCsN08G46lRf6n9LPPyYFmmInV4bBKmHxzrvWt1SGfPyTM91qoBlWNwgqW6Ihj1hY7E1TwRbF+fqlxK3LoqUwdq5mxhCw/ur25rFFt6nMI+DyY++0RYhSEdFrk+/5xa7w9KrqiQKwn7F6e3Hzu92PTfzghQw0IWsjUJJJ5YE0eMk3axtagzqugHKOW53UVk09Bwj/OKRAlk4PfNmlhbnWZ2n8Qsqzqytgjfk9bXVFVxR5XVf2YvwzKyjLBv2xFbIXHRqjVjolcklVcPrtV+EJmgryYLgsQOtEfDpnIbImmRn4RnnRV0o+bw5MFWO23ED4rR+s83N/iuPCcf7JMK3F4PNHhZwIh2gshs07hdEgtHck8p+b69mWrSCeu0cSrU9KDI7LpCrYwHWpTMPt70Fck6XhwiaL5rAvqyVF1SwBud+5xawFnqI5whpM5ulbQZNrr/KVia5Zu8LJ13c061kCdBBXJhxc2d9+yObJRRIxmje+udG7gTfvoGCtk9xEW5s17n9NZrYHgA/s9nMwG1XNCZicxrPHxjM45KMfKGKyl7cXQs58TehkGMg/eKsfE3zF//71xkybR1/ICBYTcSn+tSscgWeZJdTgMJxOedMAPd0LIPPDCUnQzpl0IYZbAHpAtCr88iXk6Hu8Wiz2GTnUgxjE8+z5YOlki34eSoKAea2CgJItzlrmWaHbxGpkoJ9kwD8QhEzPM4KQQSaOt2urukgCpTMsHnjum456oU5u2Hj7WPKOV/8kwQEZ8DIRCsZOEEoGhin7gnmbpkkIhzRUyO5RQctMaHpkYIlnB2rtuna+hni5kIvWZuK+WCWR6S0glMT74SB1kKor/kunnwY0GyVwo8gklQlK3IeeNQWZRoq+QCUrYDpuf5JCpboCqIJnYUmgbXpeaS3jzpj/9CZCJRaWPVOhy/0YmPlGQzPziGR7tSZZknpIjNJXZ2itkQhBY85TM3iATrWOQeWRQY7ZCWp8ryqQ492Lae8cgmTnWifde/KNkguCEsrFRpV3oiY8qzbReIdOYYK6ncY0mx9tQvZgjxujl7flyCV77K10OI6ZSoMgRJLP0sVmNfyTTkOAp+BcAIZD3oScmQPWsq2Si0Sy4UhYPQ6uANQ0jE21pn82Xn4N2Mk0jall0I0hmRvyQP8/9Y6q/AX3dBBU9hvG6oIYSBVk3xZrXyByS6HDbNiio9BZBZL6aw5foO8TrTjpEDQnBUmaQzALZbfy6jXan2u20Uy7BuRuOOtVqt9hk78TIZJti/C57l6FjssMinFEclnHZewncmIYDxnTU6bL7Grl2r9MbuZclmjpEmuuxFZROMJlrfhGDsJPQaF4j8461G/ECzaUZqMLTTAaPeHTcTGTP6RBOWEyDviVIZtNuLG5WnDi+5ZiGrGulcRcJwUWeLVrRWXKWGRFGKN8pWjxSKrGPYp7ltZ1LSpuQwTHLS2E7fvIKKDj6NVdkGRYqKuY1MnG5BbgMzoyupMPnr1KAM64U07cg0VRst4UT5rEaurc3yNQmcWx514C32iyVKaWadXjBFCwZc/GhncxqmpEEWgZwVKrbqccfOoBsrBAXxXoTzmjM7sXOXQWvW4hXki1xUJzNwAyXBmBAUoZmFNpx90q5/qOAi8NUWdGPi3zizN9exlmWUGxkjJuukYnpeYrbayAJcNuTl0xP7cNLc94WTTSfWG5GuS5wCkZ+MrUe8z8gZU3nSXIPrGuhLVbOSy+BOtbLnRPj9DP7EK84BGkjsTNnZA6q4oxdJzsQa448Zuvig+u2xuplp+q0FE9WhW2eKfdYll7DucTht8hskMXi6K50dCWGDpl9VijgiObJFk20BBB+UFzUEeOBNw1k5spZG3elZhoE0iCDMPR8Kfyr5vZMIxLNS5wJF3fRUxRbjMyWbYBjsa44uKzmKqfFied7aOZqvDhJuqpKqiIsLMZWeGT0LjINUUyDPh8DVpORKXkZg+NP/FIyWU04HNUbyETvVeIFkOl4qzKfVwhzsn6o0lrdW0HuiGkDu/Rc5zfEeMlFZtYbUGmDOCMz7syE+uqopQfOIs6+dXh5XSvAp7R/U81f3rSZ+AIxPefNRuAiPw9zWB6ywlYFotWEsJRJJqbo/PlyIDN+QWvQbdhP7llhmSQPU3P3KBmFguEic+hroG2LjMyzMLdtSXbQCWt4Mg8YZoOdOshvOaDNW2QO6Q1y3Moy0GqEdjC0kwtXUGknWq220jFAynDrQajmdxkH5cuX8MgEuJ4hTcV1AoVlm8yRr4CSdMh05C/ti8qGYiuUA6BRUrWEKglXQqPTm6ER6Tm8Mi3YXoCzk3k3xyhu2i6050g3iUb0UUtmMXkrUIOhEcJPDQglKjFFRvXisFG6iLhNZk+se04o2TYz7risudhp5FxoX+sr2cuCsuqDNq5CD4HwEUevkwnfG9dCBIMjVGrPzCXyFN6zTQ1w2hYpfbYtJi+x4ZPZ88dQaea7h122+0+8NWnbMmqT2fFN02Xs0Kjl1FXiD/4yNE6fWPl8nmMXwdqDsd9JqMghWMnS0XyTzCb1DwdnHbFm4e6Eld5aFIRWYIW1zTV+pa7Y4i2N5pNZ9PlaINN+E0Y2N+vRhkot5o3OkumtoICD8ZJZEXvJlAcN6rhXljy7uFUhiAT55FSUbDyrVJ57g8wM6TlnzQVGla7kEf21pV7pLKSJ3Sc8yCTBbPPuBmSmgp9CROn94N5ztlbOTCf2ngo2mf4zcqKPzAn3/hAC67wq2zMWjExQrzxnENHXJSrGv0Em6Hkly9Nz6kffX6ymGd6XdBFN/GKYlafFCrciziez4bOvdy1kzrPvSmbOFNsmM+eb9Oz5yez5vLdBFXqwWwqvlr4guduoVPXi4UVlReW3yBxSchzSXRBb2J9jkUO73vKKVhPnSzRihz9Rxicz2/IePsUJ/dxk4n4fHfEef9hkGi2PSc62/Go+JRE5w5jQu9DsCQofNGYuTUngjcbIV7AJjbfIvHtAz6jxuohQ1F5YVyYtCnqjw516vZ5B07WK3wg64JMJctRyi+Ec45qkt0zSY5d0MqC2ZyuVmugnE4ymm+2cfTgE1HqQDQtcNXIF0QvbcsA/LlATVextMjECyXBngtjc/Gq9VFlQHtYXeyYfTYERc0JohnLJPXERQiYEpd0Lm12W7XgWFmgTFjjmnGi9BlbZltzCROwN/GTm3MqRGdihFDgB6RSIJsHPyqTfG5DATcDdPwmSaidHb5KZI2dhcpwLY9M4bAVsjTFCO4cdyFu6JXifQaFUKiSn7e4EcsbJRcJCyMTvUGf7VBnJul2Ucwftd1WRhZAYcmWNrEYbhVWqo2ZzBPn9LBAa0RvtMd613EC8t43yI/ZvePnQxqqksMl0baEI6qt3uP8oSTRl8S4ywZ48xLgrK+Qds8da38K45wR57FUyVdoeRav7I7z42b3UwrbmyVVEsdYpFjtwhFMOKkJAVC3Omu1etSVW2IwwblNRmdwDydqwzjarq1RTTpxpJ/AMTTipO5rNesB29eyucG5cek44m4Zp/dVWdqQghoUcCZLwc6lTs8ZrGeNEyyFTfcwH4XJqbXrCYKOmLZjOYRrceHdtka98WtEJnTnuwtma1zrNZKnQcW950qmnQ3Y0uysOaO/Oh8no7HdSXfaZGL8vOmyUR7VBZUJvR8s0psNcEn9nZGaqVbePz/RYzN+qT12bs71IsiQrp8XLeL8fb7ZHXVXV54sTP6wVSdVPi8d9fv/4vFMx1QTRVFc2mYKqBIAtvufnoHp7YF6NtaqPWm3XF9QW4U5I3Z3fZ6ZQKJ23ggR9TL+nc0ArpXK5pDcbNzLJVCOVzHhT9+C+s6X4A6+lVis0prmUL3uwFqoMBMoEVVaUkyeL7O+PiuyMwmEwvAJ3QPMwMUXmwkUm5tGlQLWDlpuxbZ4q3SLKJ+3MFVKDE1h2HusHwziIvTqfvURAmxU9JbWpOPjAyuH+6mV7lGRdl6XT8z4YxWO3q6wvdUU9LmjYPKqCvgBZebKR8MJ9iQJznJ4qhkSpgrO1JtYG90u6XNhySkpsN8vlMW/3LmtmYo+y2vuKLcy63nwy/R9aap1lD6GjrnFtq6jBKICPKommZ9kpBY05m8t2jAVhyFfo3lwHNnsuKfJ6t92+noQlmW307Z+/EGgqusOC4ddvOfdyfCeXsRQTTVcdA1Nx2ioODXg7ZncNYhgfFm1ircjON8EhqvpyTY2Od4OvWW4xEQc5W3DKze/Y7edK4diHGr3o/jnWJBkEFwl+tDtFa2Suz43BV8h8XqoqGW1F2LLG++QcQp6vWFR1dw9+rTdrNtsdnIb8Teu2kuyRnYSRtoIpD8Tu1N5znW1hpmODbSiZQLT1uNjutotNPmHrxMwuJH4BjFktbmtO95ctzuwyw8g2dFMowKydtwzW9hSt67jjRjiZQT1oUKPw121HWi40crlf+E8LsnFmw/NLXV1ukZcqq1Vo1mGxpFmNJcv1Q1eu+q6Yac7Fr+Xy92Jo66M53lCo2CZJPbwKOq2NVpeCXTgNIRPnhmOFwp1RLmdLyWHH/ncDk9+3PO07AJF75WLdZqzpyhxv15B8SWu2kAvrtSFkYnX1DpPI+fzcNSQOZjewOpqHMhi4lq2TBu5FbAdybDNx9nE3fBEWxuwFT3njvtu4USoBGSzCVKdZozRj/wIk7msVyg1oHwp+1I6NohDjd6q1yX2t3p3lSrfLJOIufimasdxn0jwXCcrDGrOqIWRiWX92K/sLvwdG1+YSgqKy0xxZ6xRHPbt0eI3MJyxAVt6+ye0g2bt/mLMGoFh25q3ytmvXNvXAukiXTXpFcKAZhuv3zLDYrQ3mWOct4z4UoWTS3hJpX9NKhAAgciwTwekrW3ThOjVjcBO7C38O6lfIxLauTIvfxhGBgyotdAkhc0Fh5i1sIv456LJtDblk4lxp7ib21vokdIgsfle7HWbeZib+X1CkwhJ/Gwqcm+/dwhaun4U22cQxj0wJ+wj9SxoiXMGMZin3vL5C6kWa/7Zdd34zhrQYhbtBCkZG5XgUZr4fU+pT5zYWyoub2fXtk5CigjF3kYDOIiNuh1sEHkps8zgumavftx/U70aZ5oM1TtBOG3LUfYvCIlzFgzjP4lqtoP9hm9tHNaMP4J7ySU4KhM00t7GF+OehS/6a54FoQ46bnCL/z2iKlOO8+q0mbsduiGIrmgD6ACA2wlKHTzSlJXZ5tW/j/859HsoVxpjnX0zKtBVV6csatP4suowybcz+nYAkyfp6gx2t2cnHtieKwLpf09h09rSVZAU7wg/UO5jBBSe/rhnttwPXobCNckwrYTkbbze/rgvzL8PA5ra5p3/cGNJy8IjLj6NMTZf1HIuCtNKQNX50oqjov6DM2jxatWq3WrObB+tRtei/onnv7RwsRrNo/wAj172nhrnWfXVWiBT8X6FlkqlkIRNFQxEiRIgQIUKECBEiRIgQIUKECBEiRIgQIUKECBH+LP4PGbrhBLjqawoAAAAASUVORK5CYII=;" vertex="1" parent="71">
                    <mxGeometry x="56" y="15" width="144.16" height="66" as="geometry"/>
                </mxCell>
                <mxCell id="76" style="edgeStyle=none;html=1;entryX=0;entryY=0.5;entryDx=0;entryDy=0;strokeColor=#000000;" edge="1" parent="1" source="55" target="73">
                    <mxGeometry relative="1" as="geometry"/>
                </mxCell>
                <mxCell id="77" style="edgeStyle=none;html=1;entryX=1;entryY=0.5;entryDx=0;entryDy=0;strokeColor=#000000;" edge="1" parent="1" source="73" target="55">
                    <mxGeometry relative="1" as="geometry"/>
                </mxCell>
                <mxCell id="79" style="edgeStyle=none;html=1;strokeColor=#000000;" edge="1" parent="1" source="73" target="50">
                    <mxGeometry relative="1" as="geometry"/>
                </mxCell>
                <mxCell id="80" style="edgeStyle=none;html=1;entryX=0.5;entryY=0;entryDx=0;entryDy=0;strokeColor=#000000;" edge="1" parent="1" source="50" target="73">
                    <mxGeometry relative="1" as="geometry"/>
                </mxCell>
                <mxCell id="81" style="edgeStyle=none;html=1;strokeColor=#000000;" edge="1" parent="1" source="45" target="WdwUoGdTQqTl5T6Ace5M-7">
                    <mxGeometry relative="1" as="geometry"/>
                </mxCell>
            </root>
        </mxGraphModel>
    </diagram>
</mxfile>